/* XPM */
static char *_3af6fce424c47aa8353b54067dc429cTnn46TbWcJ1HPFfV[] = {
/* columns rows colors chars-per-pixel */
"64 64 3 1 ",
"  c black",
". c #008088",
"X c #00E8D8",
/* pixels */
"....XXXXXXXXXXXXXXXXXXXXXXXXXXXXXXXXXXXXXXXXXXXXXXXXXXXXXXXX....",
"....XXXXXXXXXXXXXXXXXXXXXXXXXXXXXXXXXXXXXXXXXXXXXXXXXXXXXXXX....",
"....XXXXXXXXXXXXXXXXXXXXXXXXXXXXXXXXXXXXXXXXXXXXXXXXXXXXXXXX....",
"....XXXXXXXXXXXXXXXXXXXXXXXXXXXXXXXXXXXXXXXXXXXXXXXXXXXXXXXX....",
"XXXX........................................................    ",
"XXXX........................................................    ",
"XXXX........................................................    ",
"XXXX........................................................    ",
"XXXX........................................................    ",
"XXXX........................................................    ",
"XXXX........................................................    ",
"XXXX........................................................    ",
"XXXX........................................................    ",
"XXXX........................................................    ",
"XXXX........................................................    ",
"XXXX........................................................    ",
"XXXX........................................................    ",
"XXXX........................................................    ",
"XXXX........................................................    ",
"XXXX........................................................    ",
"XXXX........................................................    ",
"XXXX........................................................    ",
"XXXX........................................................    ",
"XXXX........................................................    ",
"XXXX........................................................    ",
"XXXX........................................................    ",
"XXXX........................................................    ",
"XXXX........................................................    ",
"XXXX........................................................    ",
"XXXX........................................................    ",
"XXXX........................................................    ",
"XXXX........................................................    ",
"XXXX........................................................    ",
"XXXX........................................................    ",
"XXXX........................................................    ",
"XXXX........................................................    ",
"XXXX........................................................    ",
"XXXX........................................................    ",
"XXXX........................................................    ",
"XXXX........................................................    ",
"XXXX........................................................    ",
"XXXX........................................................    ",
"XXXX........................................................    ",
"XXXX........................................................    ",
"XXXX........................................................    ",
"XXXX........................................................    ",
"XXXX........................................................    ",
"XXXX........................................................    ",
"XXXX........................................................    ",
"XXXX........................................................    ",
"XXXX........................................................    ",
"XXXX........................................................    ",
"XXXX........................................................    ",
"XXXX........................................................    ",
"XXXX........................................................    ",
"XXXX........................................................    ",
"XXXX........................................................    ",
"XXXX........................................................    ",
"XXXX........................................................    ",
"XXXX........................................................    ",
"....                                                        ....",
"....                                                        ....",
"....                                                        ....",
"....                                                        ...."
};
