/* XPM */
static char *_33d05010b324e5beb858318387f058f4bZczzDZiqvF4y4H[] = {
/* columns rows colors chars-per-pixel */
"68 64 4 1 ",
"  c none",
". c #D82800",
"X c #FC9838",
"o c gray99",
/* pixels */
"                                                                    ",
"                                                                    ",
"                                                                    ",
"                                                                    ",
"                                                                    ",
"                                                                    ",
"                                                                    ",
"                                                                    ",
"                                                                    ",
"                                                                    ",
"                                                                    ",
"                  XXXooooXXXX          XXXXooooXXX                  ",
"                  XXXooooXXXX          XXXXooooXXX                  ",
"                  XXXooooXXXX          XXXXooooXXX                  ",
"              oooo...........ooo    ooo...........oooo              ",
"              oooo...........ooo    ooo...........oooo              ",
"              oooo...........ooo    ooo...........oooo              ",
"              oooo...........ooo    ooo...........oooo              ",
"           XXX..................XXXX..................XXX           ",
"           XXX..................XXXX..................XXX           ",
"           XXX..................XXXX..................XXX           ",
"           ooo........................................ooo           ",
"           ooo........................................ooo           ",
"           ooo........................................ooo           ",
"           ooo........................................ooo           ",
"           XXX........................................XXX           ",
"           XXX........................................XXX           ",
"           XXX........................................XXX           ",
"           ooo........................................ooo           ",
"           ooo........................................ooo           ",
"           ooo........................................ooo           ",
"           ooo........................................ooo           ",
"              XXXX................................XXXX              ",
"              XXXX................................XXXX              ",
"              XXXX................................XXXX              ",
"              XXXX................................XXXX              ",
"              oooo................................oooo              ",
"              oooo................................oooo              ",
"              oooo................................oooo              ",
"                  XXX..........................XXX                  ",
"                  XXX..........................XXX                  ",
"                  XXX..........................XXX                  ",
"                  XXX..........................XXX                  ",
"                     oooo..................oooo                     ",
"                     oooo..................oooo                     ",
"                     oooo..................oooo                     ",
"                         XXXX..........XXXX                         ",
"                         XXXX..........XXXX                         ",
"                         XXXX..........XXXX                         ",
"                         XXXX..........XXXX                         ",
"                             ooo....ooo                             ",
"                             ooo....ooo                             ",
"                             ooo....ooo                             ",
"                                XXXX                                ",
"                                XXXX                                ",
"                                XXXX                                ",
"                                XXXX                                ",
"                                                                    ",
"                                                                    ",
"                                                                    ",
"                                                                    ",
"                                                                    ",
"                                                                    ",
"                                                                    "
};
